<?xml version="1.0" encoding="utf-8"?>
<!-- Generator: Adobe Illustrator 19.0.0, SVG Export Plug-In . SVG Version: 6.00 Build 0)  -->
<svg version="1.1" id="Logo" xmlns="http://www.w3.org/2000/svg" xmlns:xlink="http://www.w3.org/1999/xlink" x="0px" y="0px"
	 viewBox="0 0 1000 1000" style="enable-background:new 0 0 1000 1000;" xml:space="preserve">
<style type="text/css">
	.st0{fill:url(#XMLID_2_);}
	.st1{fill:url(#XMLID_3_);}
	.st2{fill:url(#XMLID_4_);}
	.st3{fill:url(#XMLID_5_);}
</style>
<g id="Logo_Elements">
	<g id="Logo_1_">
		<g id="XMLID_126_">
			
				<linearGradient id="XMLID_2_" gradientUnits="userSpaceOnUse" x1="364.0406" y1="466.0349" x2="820.5261" y2="203.9238" gradientTransform="matrix(0.837 -0.5471 0.5471 0.837 -212.6861 302.1291)">
				<stop  offset="0" style="stop-color:#3F72FF"/>
				<stop  offset="1" style="stop-color:#25FFFF"/>
			</linearGradient>
			<path id="XMLID_130_" class="st0" d="M460.6,380.7c92.5-83.3,126.2-184,84.9-204.2c-35.9-17.5-29.3-51-62.7-62.9
				c25,185.3-198.2,262.4-204,356.4c-4.2,67.8,19.3,124.9,54.9,190.4C312.4,614.8,305.8,520.1,460.6,380.7z"/>
			
				<linearGradient id="XMLID_3_" gradientUnits="userSpaceOnUse" x1="335.8976" y1="586.3334" x2="757.3585" y2="307.6702" gradientTransform="matrix(0.837 -0.5471 0.5471 0.837 -212.6861 302.1291)">
				<stop  offset="5.128204e-003" style="stop-color:#3F72FF"/>
				<stop  offset="0.2362" style="stop-color:#3773FE"/>
				<stop  offset="0.5996" style="stop-color:#2074FB"/>
				<stop  offset="1" style="stop-color:#0077F6"/>
			</linearGradient>
			<path id="XMLID_129_" class="st1" d="M487.7,461.9c103.2-93.6,136.8-154.9,121.7-201.5c-29.3-9.4-7.2-48.5-64.9-84.5
				c6.5,22.1,34.5,87.5-98.3,198.9C286.6,508.6,311.7,613.8,333,659.4c22.4,41.3,49.6,82.6,77.6,124.5
				C345.2,674,376.5,562.7,487.7,461.9z"/>
			
				<linearGradient id="XMLID_4_" gradientUnits="userSpaceOnUse" x1="336.9805" y1="665.6705" x2="730.0352" y2="495.6469" gradientTransform="matrix(0.837 -0.5471 0.5471 0.837 -212.6861 302.1291)">
				<stop  offset="5.128204e-003" style="stop-color:#3F72FF"/>
				<stop  offset="0.234" style="stop-color:#3668FF"/>
				<stop  offset="0.6174" style="stop-color:#1F4EFF"/>
				<stop  offset="1" style="stop-color:#022EFF"/>
			</linearGradient>
			<path id="XMLID_128_" class="st2" d="M477.1,449.1c-117.4,93.7-132.5,224-67.2,333.8c12.9,19.2,25.9,38.6,38.7,58.1
				c-19.8-52.9-59.6-203.3,74.9-314.2C623.9,444,668.5,384,659.5,351.1c-37.1-14.8-20.7-76.6-51.5-91.7
				C617.2,312,600.6,350.5,477.1,449.1z"/>
			
				<linearGradient id="XMLID_5_" gradientUnits="userSpaceOnUse" x1="763.8678" y1="534.5554" x2="377.6109" y2="687.1797" gradientTransform="matrix(0.837 -0.5471 0.5471 0.837 -212.6861 302.1291)">
				<stop  offset="0" style="stop-color:#0000C7"/>
				<stop  offset="1" style="stop-color:#3F72FF"/>
			</linearGradient>
			<path id="XMLID_127_" class="st3" d="M526.6,502.9c-153.1,111.5-100.4,281.4-80.6,334.2c0.8,1.3,1.7,2.6,2.5,3.9
				c0,0-4.6-195.7,116.6-282.7C593.9,537.6,724.6,441,699,430c-21.5-9.3-16.4-71-43.1-80.6C664.9,382.3,631.9,426.3,526.6,502.9z"/>
		</g>
	</g>
</g>
</svg>
