<?xml version="1.0" encoding="utf-8"?>
<!-- Generator: Adobe Illustrator 19.0.0, SVG Export Plug-In . SVG Version: 6.00 Build 0)  -->
<svg version="1.1" id="Logo" xmlns="http://www.w3.org/2000/svg" xmlns:xlink="http://www.w3.org/1999/xlink" x="0px" y="0px"
	 viewBox="0 0 1000 1000" style="enable-background:new 0 0 1000 1000;" xml:space="preserve">
<style type="text/css">
	.st0{fill:#4E5156;}
	.st1{fill:url(#XMLID_2_);}
	.st2{fill:url(#XMLID_3_);}
	.st3{fill:url(#XMLID_4_);}
	.st4{fill:url(#XMLID_5_);}
</style>
<g id="Logo_Elements">
	<g id="Type">
		<path id="XMLID_164_" class="st0" d="M124.6,726.2c-3.5,0-8.7,0.1-14.4,0.2v-3.8c3.4-0.3,6.1-0.8,7.1-1.2c1.7-0.7,1.9-1.1,1.9-6.3
			v-46.5c0-4.4-0.3-4.9-1-5.7c-0.6-0.6-2.1-1.2-8-1.6v-3.8h18.1c7.8,0,13.2,0.2,17.1,1c10,2,15.6,8.5,15.6,19
			c0,13.4-9.1,20.4-25.2,20.4c-2.8,0-5.7,0-8.2-0.3v17.1c0,3.8,0.1,5.3,1,6.2c0.9,0.9,3.3,1.2,9.3,1.7v3.8
			C132.6,726.3,126.9,726.2,124.6,726.2z M134.3,693c11,0,17.6-4.1,17.6-14.7c0-7.4-2.6-12.5-9.3-14.4c-3.1-0.9-7.3-1.4-15.2-1.4
			v30.3C129.8,693,132.7,693,134.3,693z"/>
		<path id="XMLID_161_" class="st0" d="M182.3,726.2c-2.5,0-6.5,0.1-12.1,0.2v-3.8c6.1-0.4,7.8-1.1,8.4-1.9c0.4-0.7,0.5-2.2,0.5-6.1
			V669c0-4.3-0.1-5.1-0.5-5.8c-0.5-1-2.6-1.4-8.4-1.9v-3.8h14.8c8.9,0,14.6,0.3,19.1,1.2c9.5,1.8,14.8,8,14.8,18.1
			c0,7.7-4.5,14.3-12.9,17.5c5.4,10.5,8.8,15.8,13,21c3.1,3.9,5.6,6.8,10.3,10.3l-1.9,3.4c-5.9-2-9.5-4.4-13.4-8.2
			c-4.6-4.4-9.5-10.9-17.1-24.7c-0.6,0.1-2.9,0.2-4.6,0.2c-1.8,0-3.6-0.1-4.9-0.2v18.4c0,3.7,0.2,5.3,0.6,6c0.7,1,1.7,1.7,8.9,2.1
			v3.8C191.9,726.3,185.3,726.2,182.3,726.2z M193.2,691.5c11.8,0,16.8-6,16.8-14.3c0-6.8-3-11.3-8-13.4c-4.2-1.6-10.5-1.7-14.4-1.7
			v29.1C189.4,691.4,192.1,691.5,193.2,691.5z"/>
		<path id="XMLID_158_" class="st0" d="M244.9,726.2c-2.5,0-7.3,0.1-11.9,0.2v-3.8c4.1-0.4,5.4-1.2,6.1-1.8c1.6-1.4,2.7-4,5.2-10.8
			l19.3-52.6h5.6l17.8,53.1c2.2,6.6,3.1,9.1,4.7,10.6c0.9,0.9,2.7,1.1,6.3,1.5v3.8c-4.9-0.1-9.2-0.2-11.8-0.2
			c-2.7,0-9.5,0.1-15.1,0.2v-3.8c7.5-0.6,8.9-1.5,8.9-3.5c0-1.8-1-5-2.4-9.1l-2.8-8.8h-21.4l-3,8.6c-2,5.8-2.5,7.7-2.5,9.4
			c0,2,1.7,2.7,10.1,3.3v3.8C253.2,726.3,247.3,726.2,244.9,726.2z M273.5,696.5c-5.3-16-7.3-21.9-8.9-27.3
			c-1.7,5.4-3.7,11.4-9.4,27.3H273.5z"/>
		<path id="XMLID_156_" class="st0" d="M352,723.6c-0.9,2.4-2.6,2.7-6.6,2.7h-41.4v-3.7c4.3-0.4,7.3-0.8,8.1-1.7
			c0.9-0.9,0.9-2.5,0.9-6.4V669c0-2.9,0-5-0.6-5.7c-0.9-1.1-2.8-1.5-8.3-2v-3.7h39.2c5.2,0,5.9,0.7,6.2,3.1
			c0.5,3.5,0.6,10.9,0.6,13.2l-3.6,0.2c-1.2-5.8-2.2-8.8-3.5-9.9c-1.9-1.6-5-1.8-13.4-1.8c-2.9,0-5.9,0.1-8.3,0.2V688h1
			c10.5,0,13.4-0.4,15.2-2c0.9-0.9,1.4-3.2,2-6.7h3.8c-0.1,2.6-0.1,8-0.1,10.9c0,1.7,0,7.4,0.1,11.6h-3.6c-0.7-4-1.3-6.2-2.1-7.2
			c-1.6-1.6-5.4-1.7-15.3-1.7h-1v23.5c0,2.8,0.7,3.8,2.8,4.3c2.7,0.5,5.6,0.7,7.9,0.7c9.5,0,12.8-1.2,14.2-2.7
			c1.4-1.5,3.1-5.7,5.1-10.8l3.4,0.7C354.2,713.2,353.2,720.2,352,723.6z"/>
		<path id="XMLID_154_" class="st0" d="M373.8,718.5c2.9,3.2,7.4,4.3,12.1,4.3c8.3,0,13.4-5.1,13.4-10.7s-1.3-9-12-15.1l-5.7-3.2
			c-11.2-6.5-13.7-12-13.7-19.5c0-11.6,9.8-18.2,22.3-18.3c4.8,0,8.7,0.4,12,1.7c1,0.3,2.2,0.9,2.7,3.8c0.5,4.2,0.6,9.3,0.6,13.4
			l-3.7,0.2c-1.1-5.3-1.9-8.2-3-10c-1.6-2.7-4.4-3.9-10.6-3.9c-7.5,0-12.9,4.1-12.9,10.9c0,5.6,2.4,8.7,10.1,13.4l5.9,3.5
			c12.1,7.5,15.6,11.5,15.6,19.9c0,11.1-8.7,19.1-22.2,19.1c-4.9,0-9.7-0.6-14.4-2.6c-2.4-1-3.3-2.1-3.6-5.4
			c-0.4-3.5-0.6-9.4-0.7-12.3l4.1-0.3C371.2,713.4,372.6,717.1,373.8,718.5z"/>
		<path id="XMLID_152_" class="st0" d="M431.1,726.2c-2.4,0-8.9,0.1-13.4,0.2v-3.8c5.7-0.4,7.5-0.9,8.2-1.7c0.6-0.6,0.7-1.7,0.7-6.4
			v-45.2c0-3.8-0.2-5.3-0.7-6.1c-0.6-0.9-2-1.3-8.2-1.8v-3.8c4.5,0.1,11,0.2,13.4,0.2c2.6,0,8.8-0.1,13.1-0.2v3.8
			c-6.6,0.6-7.8,1.1-8.5,1.9c-0.5,0.8-0.6,2.2-0.6,5.9v45.4c0,4.6,0.2,5.6,0.7,6.2c0.6,0.9,2.8,1.4,8.4,1.8v3.8
			C439.9,726.3,433.7,726.2,431.1,726.2z"/>
		<path id="XMLID_149_" class="st0" d="M454.3,722.5c5.1-0.4,7.5-0.8,8.2-1.7c0.6-0.8,0.7-1.8,0.7-6v-45.7c0-2.7-0.1-4.8-0.4-5.6
			c-0.7-1.4-2-1.5-8.5-2.2v-3.7h14c21.3,0,29.2,1.8,35.6,5.6c9.3,5.4,13.4,14.4,13.4,27.4c0,24.5-13.9,35.9-35.9,35.9
			c-2.2,0-11.6-0.3-14.6-0.3c-2.4,0-7.6,0.1-12.4,0.2V722.5z M474.6,720.5c2.7,0.4,6.1,0.5,8.8,0.5c15.9,0,24.8-10.7,24.8-29.5
			c0-12.6-4.7-21.6-12.8-25.3c-6.3-3-15.4-3.6-23.7-3.6v54.3C471.6,719.6,472.4,720.1,474.6,720.5z"/>
		<path id="XMLID_147_" class="st0" d="M536.8,726.2c-2.3,0-8.9,0.1-13.4,0.2v-3.8c5.7-0.4,7.5-0.9,8.2-1.7c0.6-0.6,0.7-1.7,0.7-6.4
			v-45.2c0-3.8-0.2-5.3-0.7-6.1c-0.6-0.9-2-1.3-8.2-1.8v-3.8c4.5,0.1,11,0.2,13.4,0.2c2.6,0,8.8-0.1,13.1-0.2v3.8
			c-6.6,0.6-7.8,1.1-8.5,1.9c-0.5,0.8-0.6,2.2-0.6,5.9v45.4c0,4.6,0.2,5.6,0.8,6.2c0.6,0.9,2.8,1.4,8.4,1.8v3.8
			C545.6,726.3,539.4,726.2,536.8,726.2z"/>
		<path id="XMLID_145_" class="st0" d="M618.7,663.6c-0.5,1.1-0.6,3.4-0.6,6.5v25.1c0,12.7-1.5,19.5-5.3,24.5
			c-4.4,5.5-10.9,8.2-20.5,8.2c-10.8,0-17.7-4.2-20.9-9.6c-2.6-4.3-3.5-9.2-3.5-23.4c0-9,0.2-19,0.2-25.8c0-3.4-0.2-4.8-0.6-5.6
			c-0.7-1.3-2.4-1.6-8.5-2.1v-3.8c4.1,0.1,11.2,0.2,14.2,0.2c2.7,0,9-0.1,12.9-0.2v3.8c-6.1,0.4-8.1,1-8.9,1.9
			c-0.6,0.8-0.9,2.5-0.9,5.5c-0.1,7.8-0.1,16.6-0.1,25.8c0,8.2,0.3,13.9,1.6,17.7c2,5.9,6.6,9.7,16.6,9.7c7.3,0,13-3.2,15.4-7.4
			c2.8-4.7,3.1-12.7,3.1-21.9c0-2.9-0.2-12.1-0.5-23.5c-0.1-3.6-0.3-5.7-1.4-6.4c-1.4-1-3.5-1-8-1.5v-3.8c3.7,0.1,9.4,0.1,11.9,0.1
			c2.4,0,8.8-0.1,12.3-0.1v3.8C620.7,662,619.1,662.5,618.7,663.6z"/>
		<path id="XMLID_143_" class="st0" d="M647.7,726.2c-2.1,0-7.8,0.1-12.9,0.2v-3.8c4.3-0.2,6.9-0.8,7.6-1.4c1.1-1.1,1.4-3,1.6-8.5
			c1.6-38.9,1.8-44,1.8-46c0-1.5-0.2-2.8-0.8-3.4c-0.6-0.8-1.4-1.3-8.3-1.8v-3.8c4.5,0.2,7.8,0.2,10,0.2c2.5,0,7.7,0,9.1-0.1
			c2.1,6.8,5.3,15.3,19.1,54.6c14.6-39.4,17.8-48.3,20-54.7c2.4,0.2,6.7,0.2,9.2,0.2c1.7,0,7.9-0.1,10.8-0.2v3.8
			c-6.6,0.4-8.2,0.9-8.8,1.7c-0.7,0.9-0.9,2.5-0.9,5.6c0,1.9,0,5.3,0.3,44.3c0.1,5.7,0.4,6.9,0.9,7.6c0.5,1.1,1.2,1.6,9,2v3.8
			c-5-0.1-11.5-0.2-14.5-0.2c-2.8,0-6.8,0.1-12.7,0.2v-3.8c6.5-0.3,7.8-1.1,8.4-1.9c0.4-0.6,0.6-1.8,0.6-5c0-1.5,0-10.5-0.1-48
			c-2.3,6.6-5.3,14.7-22,58.6h-3.9c-15.8-44.8-17.5-49.8-20.1-57.7c-0.6,15.8-1.4,45.1-1.4,47.9c0,2.1,0.3,4.1,1.1,4.7
			c0.9,0.7,1.4,1,8.5,1.4v3.8C655.1,726.3,650,726.2,647.7,726.2z"/>
		<path id="XMLID_138_" class="st0" d="M779.2,727.8c-20.5,0-31.8-15.2-31.8-35.9c0-21.1,13.7-35.9,31.9-35.9
			c20.1,0,31.3,13.6,31.3,35.6C810.6,712.9,797.5,727.8,779.2,727.8z M778.9,661.4c-13.6,0-22.6,10.9-22.6,29.2
			c0,20.8,9.3,31.8,23.4,31.8c13.5,0,22.3-10.8,22.3-29.4C801.9,673.8,792.8,661.4,778.9,661.4z"/>
		<path id="XMLID_136_" class="st0" d="M830.2,726.2c-2.3,0-8.9,0.1-13.3,0.2v-3.8c5.7-0.4,7.5-0.9,8.2-1.7c0.6-0.6,0.8-1.7,0.8-6.4
			v-45.2c0-3.8-0.2-5.3-0.8-6.1c-0.6-0.9-2-1.3-8.2-1.8v-3.8c4.5,0.1,11,0.2,13.3,0.2c2.6,0,8.8-0.1,13.1-0.2v3.8
			c-6.6,0.6-7.8,1.1-8.5,1.9c-0.5,0.8-0.6,2.2-0.6,5.9v45.4c0,4.6,0.2,5.6,0.7,6.2c0.6,0.9,2.8,1.4,8.4,1.8v3.8
			C838.9,726.3,832.7,726.2,830.2,726.2z"/>
		<path id="XMLID_132_" class="st0" d="M901.9,722.2c-0.9,3.2-1.7,4.1-6.4,4.1h-42.1v-3.7c4.5-0.3,7.2-0.6,8.1-1.7
			c0.9-0.9,0.9-3.3,0.9-6.6V669c0-4.4-0.1-5.3-0.9-6.1c-0.9-0.9-3.2-1.2-8.1-1.6v-3.8c5.1,0.1,10.6,0.2,13.1,0.2
			c2.9,0,8.3-0.1,13.2-0.2v3.8c-4.6,0.2-7.5,0.9-8.2,1.7c-0.5,0.7-0.9,1.9-0.9,5.9v47.5c0,2.8,0.5,3.8,2.7,4.3
			c2.7,0.5,5.7,0.7,7.9,0.7c8.6,0,12.5-1.1,14.3-3c1.4-1.5,2.9-4.9,4.8-10.5l3.6,0.6C903.7,712.3,902.9,718.2,901.9,722.2z"/>
	</g>
	<g id="Logo_1_">
		<g id="XMLID_126_">
			
				<linearGradient id="XMLID_2_" gradientUnits="userSpaceOnUse" x1="490.3099" y1="463.1596" x2="668.5663" y2="360.806" gradientTransform="matrix(0.837 -0.5471 0.5471 0.837 -212.6861 302.1291)">
				<stop  offset="0" style="stop-color:#3F72FF"/>
				<stop  offset="1" style="stop-color:#25FFFF"/>
			</linearGradient>
			<path id="XMLID_130_" class="st1" d="M495.5,377.7c36.1-32.5,49.3-71.9,33.1-79.7c-14-6.8-11.5-19.9-24.5-24.6
				c9.8,72.4-77.4,102.5-79.6,139.2c-1.6,26.5,7.6,48.8,21.4,74.3C437.6,469.1,435.1,432.1,495.5,377.7z"/>
			
				<linearGradient id="XMLID_3_" gradientUnits="userSpaceOnUse" x1="479.3202" y1="510.1359" x2="643.8995" y2="401.3187" gradientTransform="matrix(0.837 -0.5471 0.5471 0.837 -212.6861 302.1291)">
				<stop  offset="5.128204e-003" style="stop-color:#3F72FF"/>
				<stop  offset="0.2362" style="stop-color:#3773FE"/>
				<stop  offset="0.5996" style="stop-color:#2074FB"/>
				<stop  offset="1" style="stop-color:#0077F6"/>
			</linearGradient>
			<path id="XMLID_129_" class="st2" d="M506.1,409.4c40.3-36.5,53.4-60.5,47.5-78.7c-11.5-3.7-2.8-18.9-25.3-33
				c2.5,8.6,13.5,34.2-38.4,77.7c-62.3,52.3-52.5,93.3-44.2,111.2c8.8,16.1,19.4,32.3,30.3,48.6
				C450.4,492.2,462.6,448.8,506.1,409.4z"/>
			
				<linearGradient id="XMLID_4_" gradientUnits="userSpaceOnUse" x1="479.743" y1="541.1168" x2="633.2298" y2="474.7231" gradientTransform="matrix(0.837 -0.5471 0.5471 0.837 -212.6861 302.1291)">
				<stop  offset="5.128204e-003" style="stop-color:#3F72FF"/>
				<stop  offset="0.234" style="stop-color:#3668FF"/>
				<stop  offset="0.6174" style="stop-color:#1F4EFF"/>
				<stop  offset="1" style="stop-color:#022EFF"/>
			</linearGradient>
			<path id="XMLID_128_" class="st3" d="M501.9,404.4c-45.8,36.6-51.7,87.5-26.2,130.4c5,7.5,10.1,15.1,15.1,22.7
				c-7.7-20.6-23.3-79.4,29.2-122.7c39.2-32.3,56.6-55.8,53.1-68.6c-14.5-5.8-8.1-29.9-20.1-35.8
				C556.7,350.8,550.2,365.9,501.9,404.4z"/>
			
				<linearGradient id="XMLID_5_" gradientUnits="userSpaceOnUse" x1="646.4413" y1="489.9167" x2="495.6091" y2="549.5161" gradientTransform="matrix(0.837 -0.5471 0.5471 0.837 -212.6861 302.1291)">
				<stop  offset="0" style="stop-color:#0000C7"/>
				<stop  offset="1" style="stop-color:#3F72FF"/>
			</linearGradient>
			<path id="XMLID_127_" class="st4" d="M521.3,425.4c-59.8,43.5-39.2,109.9-31.5,130.5c0.3,0.5,0.7,1,1,1.5
				c0,0-1.8-76.4,45.5-110.4c11.2-8.1,62.3-45.8,52.3-50.1c-8.4-3.6-6.4-27.7-16.8-31.5C575.3,378.3,562.4,395.5,521.3,425.4z"/>
		</g>
	</g>
</g>
</svg>
